<svg width="1847" height="378" viewBox="0 0 1847 378" fill="none" xmlns="http://www.w3.org/2000/svg">
<g clip-path="url(#clip0_168_25)">
<path d="M669.121 377.105H615.662C594.202 377.105 576.817 359.723 576.817 338.302C576.817 316.866 594.217 299.499 615.662 299.499H669.939C730.335 299.499 781.462 252.285 783.249 191.971C785.112 129.296 734.62 77.7257 672.302 77.7257H259.195C239.992 77.7257 223.212 92.1577 221.925 111.294C220.516 132.277 237.205 149.795 257.923 149.795H424.056C485.966 149.795 538.365 198.188 540.198 260.016C542.106 324.248 490.358 377.105 426.464 377.105H291.8C270.341 377.105 252.955 359.723 252.955 338.302C252.955 316.866 270.356 299.499 291.8 299.499H425.192C444.395 299.499 461.175 285.067 462.462 265.931C463.87 244.948 447.181 227.43 426.464 227.43H260.331C198.421 227.43 146.021 179.037 144.189 117.209C142.281 52.9615 194.044 0.10498 257.923 0.10498H672.286C777.555 0.10498 862.969 86.6511 860.954 192.243C859.001 295.445 772.451 377.105 669.121 377.105Z" fill="#FF971E"/>
<path d="M673.074 227.415C694.528 227.415 711.919 210.043 711.919 188.613C711.919 167.182 694.528 149.81 673.074 149.81C651.621 149.81 634.229 167.182 634.229 188.613C634.229 210.043 651.621 227.415 673.074 227.415Z" fill="#02A3AB"/>
<path d="M182.989 377.105C204.442 377.105 221.834 359.732 221.834 338.302C221.834 316.872 204.442 299.499 182.989 299.499C161.535 299.499 144.144 316.872 144.144 338.302C144.144 359.732 161.535 377.105 182.989 377.105Z" fill="#FF1B28"/>
<path d="M38.8452 377.105C60.2988 377.105 77.6904 359.732 77.6904 338.302C77.6904 316.872 60.2988 299.499 38.8452 299.499C17.3916 299.499 0 316.872 0 338.302C0 359.732 17.3916 377.105 38.8452 377.105Z" fill="#02A3AB"/>
<path d="M66.8774 151.247C88.331 151.247 105.723 133.874 105.723 112.444C105.723 91.0139 88.331 73.6412 66.8774 73.6412C45.4238 73.6412 28.0322 91.0139 28.0322 112.444C28.0322 133.874 45.4238 151.247 66.8774 151.247Z" fill="#FF1B28"/>
</g>
<path d="M1058.52 70.9085C1022.91 70.9085 1004.17 79.924 1004.17 94.1655C1004.17 101.991 1009.15 107.217 1019.13 110.778C1037.87 117.422 1066.12 115.29 1101.01 119.793C1143.73 125.248 1164.14 139.966 1164.14 168.686C1164.14 204.757 1131.38 225.881 1070.39 225.881C1030.08 225.881 998.257 217.994 974.004 201.285C970.699 199.011 970.029 194.385 972.453 191.194L979.953 181.306C982.085 178.495 985.981 177.658 989.056 179.403C1014.89 194.103 1041.31 200.968 1070.63 200.968C1111.45 200.968 1133.29 189.106 1133.29 170.59C1133.29 146.143 1104.1 146.143 1053.55 142.821C1000.62 139.252 974.039 130.95 974.039 97.9638C974.039 64.9775 1004.89 45.748 1060.67 45.748C1094.17 45.748 1122.81 52.7365 1146.42 66.555C1150.28 68.8111 1151.04 74.0987 1148.05 77.4212L1139.97 86.3926C1137.84 88.7456 1134.44 89.3625 1131.58 87.9965C1107.59 76.5399 1083.9 70.8997 1058.54 70.8997L1058.52 70.9085Z" fill="#FF971E"/>
<path d="M1381.01 204.052C1362.03 218.293 1335.44 226.833 1305.54 226.833C1275.64 226.833 1248.35 218.047 1229.59 203.814C1206.56 186.488 1194.94 163.707 1194.94 135.7C1194.94 107.693 1206.8 85.3876 1230.06 67.8237C1249.28 53.3443 1276.11 44.5668 1305.53 44.5668C1334.96 44.5668 1361.78 53.3531 1380.77 67.8237C1403.79 85.3876 1415.65 108.407 1415.65 135.7C1415.65 162.993 1404.02 186.726 1381 204.052H1381.01ZM1360.37 86.8065C1346.6 76.8392 1327.14 70.6703 1305.54 70.6703C1257.6 70.6703 1224.6 98.2014 1224.6 135.7C1224.6 173.198 1256.17 200.729 1305.54 200.729C1354.91 200.729 1385.99 174.15 1385.99 135.7C1385.99 115.765 1377.45 99.3912 1360.37 86.8065Z" fill="#FF971E"/>
<path d="M1464.05 214.75V57.1248C1464.05 53.2031 1467.23 50.0305 1471.14 50.0305H1485.42C1489.34 50.0305 1492.51 53.2119 1492.51 57.1248V188.885C1492.51 192.807 1495.69 195.979 1499.61 195.979H1618.08C1622 195.979 1625.17 199.161 1625.17 203.073V214.742C1625.17 218.663 1621.99 221.836 1618.08 221.836H1471.13C1467.21 221.836 1464.04 218.654 1464.04 214.742L1464.05 214.75Z" fill="#FF971E"/>
<path d="M1652.12 214.75V57.1248C1652.12 53.2031 1655.3 50.0305 1659.22 50.0305H1818.27C1822.19 50.0305 1825.36 53.2119 1825.36 57.1248V68.8018C1825.36 72.7235 1822.18 75.8961 1818.27 75.8961H1687.69C1683.77 75.8961 1680.6 79.0775 1680.6 82.9904V112.698C1680.6 116.62 1683.78 119.793 1687.69 119.793H1774.13C1778.05 119.793 1781.22 122.974 1781.22 126.887V138.564C1781.22 142.486 1778.04 145.658 1774.13 145.658H1687.69C1683.77 145.658 1680.6 148.84 1680.6 152.752V188.867C1680.6 192.789 1683.78 195.962 1687.69 195.962H1824.91C1828.83 195.962 1832 199.143 1832 203.056V214.724C1832 218.646 1828.82 221.818 1824.91 221.818H1659.21C1655.29 221.818 1652.11 218.637 1652.11 214.724L1652.12 214.75Z" fill="#FF971E"/>
<path d="M1046.5 300.021C1046.5 308.894 1043.02 316.639 1036.33 322.463C1030.23 327.851 1021.97 330.812 1012.84 330.812H973.605C972.165 330.812 971 329.647 971 328.206V270.439C971 268.998 972.165 267.834 973.605 267.834H1010.84C1032.85 267.834 1046.51 280.531 1046.51 300.012L1046.5 300.021ZM1035.19 299.763C1035.19 286.363 1025.8 277.321 1011.7 277.321H984.035C982.594 277.321 981.43 278.486 981.43 279.926V318.737C981.43 320.177 982.594 321.342 984.035 321.342H1013.71C1026.23 321.342 1035.19 312.38 1035.19 299.772V299.763Z" fill="#FF1B28"/>
<path d="M1063.61 330.811V267.842H1074.05V330.811H1063.61Z" fill="#FF1B28"/>
<path d="M1132.15 332.643C1121.19 332.643 1111.27 329.424 1104.4 324.205C1096.05 317.857 1091.79 309.508 1091.79 299.238C1091.79 288.968 1096.05 280.797 1104.58 274.36C1111.71 268.883 1121.62 265.833 1133.02 265.833C1145.87 265.833 1156.04 269.807 1164.66 278.423C1165.92 279.686 1165.61 281.82 1164.01 282.62L1159.07 285.092C1158.09 285.581 1156.9 285.403 1156.11 284.638C1149.96 278.672 1142.24 275.409 1132.16 275.409C1124.33 275.409 1117.11 277.667 1112.06 281.322C1105.8 285.936 1102.67 291.929 1102.67 299.238C1102.67 313.242 1114.33 323.067 1132.16 323.067C1144 323.067 1152.71 318.684 1157.42 310.708C1158.44 308.983 1157.16 306.805 1155.16 306.805H1132.58C1131.14 306.805 1129.98 305.64 1129.98 304.199V299.923C1129.98 298.482 1131.14 297.317 1132.58 297.317H1172.35V298.269C1172.35 318.71 1156.51 332.625 1132.16 332.625L1132.15 332.643Z" fill="#FF1B28"/>
<path d="M1190.07 328.215V270.447C1190.07 269.007 1191.23 267.842 1192.67 267.842H1197.91C1199.35 267.842 1200.51 269.007 1200.51 270.447V328.215C1200.51 329.655 1199.35 330.82 1197.91 330.82H1192.67C1191.23 330.82 1190.07 329.655 1190.07 328.215Z" fill="#FF1B28"/>
<path d="M1251.99 279.926V328.215C1251.99 329.656 1250.82 330.82 1249.38 330.82H1244.15C1242.7 330.82 1241.54 329.656 1241.54 328.215V279.926C1241.54 278.486 1240.38 277.321 1238.93 277.321H1214.04C1212.6 277.321 1211.43 276.156 1211.43 274.716V270.439C1211.43 268.998 1212.6 267.834 1214.04 267.834H1279.46C1280.9 267.834 1282.07 268.998 1282.07 270.439V274.716C1282.07 276.156 1280.9 277.321 1279.46 277.321H1254.57C1253.13 277.321 1251.96 278.486 1251.96 279.926H1251.99Z" fill="#FF1B28"/>
<path d="M1342.31 329.415L1336.46 318.132C1336.02 317.27 1335.13 316.727 1334.15 316.727H1294.96C1293.99 316.727 1293.1 317.27 1292.65 318.132L1286.8 329.415C1286.35 330.278 1285.46 330.82 1284.48 330.82H1278.99C1277.03 330.82 1275.77 328.731 1276.69 327.006L1307.25 269.238C1307.7 268.385 1308.58 267.851 1309.55 267.851H1319.55C1320.51 267.851 1321.4 268.385 1321.86 269.238L1352.42 327.006C1353.33 328.74 1352.08 330.82 1350.11 330.82H1344.62C1343.65 330.82 1342.76 330.278 1342.31 329.415H1342.31ZM1312.3 281.162L1300.53 303.426C1299.62 305.159 1300.87 307.24 1302.84 307.24H1326.31C1328.27 307.24 1329.52 305.159 1328.61 303.426L1316.91 281.162C1315.93 279.312 1313.28 279.303 1312.31 281.162H1312.3Z" fill="#FF1B28"/>
<path d="M1365.57 328.215V270.447C1365.57 269.007 1366.73 267.842 1368.17 267.842H1373.41C1374.85 267.842 1376.01 269.007 1376.01 270.447V318.736C1376.01 320.177 1377.18 321.342 1378.62 321.342H1422.03C1423.48 321.342 1424.64 322.506 1424.64 323.947V328.224C1424.64 329.664 1423.48 330.829 1422.03 330.829H1368.18C1366.74 330.829 1365.57 329.664 1365.57 328.224L1365.57 328.215Z" fill="#FF1B28"/>
<path d="M1543.35 332.608C1541.91 332.608 1540.74 331.443 1540.74 330.003V281.109H1540.48L1509.83 319.6C1508.79 320.907 1506.79 320.907 1505.75 319.6L1475.35 281.118H1475.09V330.012C1475.09 331.452 1473.92 332.617 1472.48 332.617H1467.25C1465.8 332.617 1464.64 331.452 1464.64 330.012V272.244C1464.64 270.804 1465.8 269.639 1467.25 269.639H1476.35C1477.14 269.639 1477.9 270.004 1478.39 270.626L1505.83 305.178C1506.87 306.485 1508.87 306.485 1509.91 305.178L1537.44 270.617C1537.94 269.995 1538.69 269.639 1539.48 269.639H1548.58C1550.02 269.639 1551.19 270.804 1551.19 272.244V330.012C1551.19 331.452 1550.02 332.617 1548.58 332.617H1543.35V332.608Z" fill="#02A3AB"/>
<path d="M1572.23 330.011V272.244C1572.23 270.803 1573.39 269.639 1574.83 269.639H1633.12C1634.56 269.639 1635.73 270.803 1635.73 272.244V276.521C1635.73 277.961 1634.56 279.126 1633.12 279.126H1585.27C1583.83 279.126 1582.67 280.29 1582.67 281.731V292.614C1582.67 294.054 1583.83 295.219 1585.27 295.219H1616.95C1618.39 295.219 1619.56 296.384 1619.56 297.824V302.101C1619.56 303.542 1618.39 304.706 1616.95 304.706H1585.27C1583.83 304.706 1582.67 305.871 1582.67 307.312V320.551C1582.67 321.991 1583.83 323.156 1585.27 323.156H1635.56C1637 323.156 1638.17 324.321 1638.17 325.761V330.038C1638.17 331.478 1637 332.643 1635.56 332.643H1574.83C1573.39 332.643 1572.23 331.478 1572.23 330.038V330.011Z" fill="#02A3AB"/>
<path d="M1729.38 301.817C1729.38 310.69 1725.91 318.435 1719.21 324.259C1713.12 329.647 1704.86 332.608 1695.73 332.608H1653.89V269.639H1693.73C1715.73 269.639 1729.39 282.336 1729.39 301.817H1729.38ZM1718.07 301.559C1718.07 288.159 1708.68 279.117 1694.59 279.117H1664.32V323.129H1696.59C1709.12 323.129 1718.07 314.167 1718.07 301.559Z" fill="#02A3AB"/>
<path d="M1746.5 330.011V272.244C1746.5 270.803 1747.66 269.639 1749.1 269.639H1754.34C1755.78 269.639 1756.95 270.803 1756.95 272.244V330.011C1756.95 331.452 1755.78 332.616 1754.34 332.616H1749.1C1747.66 332.616 1746.5 331.452 1746.5 330.011Z" fill="#02A3AB"/>
<path d="M1835.71 331.212L1829.86 319.929C1829.41 319.066 1828.52 318.524 1827.54 318.524H1788.35C1787.38 318.524 1786.49 319.066 1786.04 319.929L1780.19 331.212C1779.74 332.074 1778.86 332.617 1777.88 332.617H1772.38C1770.43 332.617 1769.16 330.527 1770.08 328.802L1800.64 271.035C1801.09 270.181 1801.97 269.648 1802.94 269.648H1812.94C1813.91 269.648 1814.79 270.181 1815.25 271.035L1845.81 328.802C1846.72 330.536 1845.47 332.617 1843.5 332.617H1838.01C1837.04 332.617 1836.15 332.074 1835.7 331.212H1835.71ZM1805.69 282.958L1793.93 305.222C1793.01 306.956 1794.26 309.037 1796.23 309.037H1819.7C1821.66 309.037 1822.91 306.956 1822.01 305.222L1810.3 282.958C1809.33 281.109 1806.68 281.1 1805.7 282.958H1805.69Z" fill="#02A3AB"/>
<defs>
<clipPath id="clip0_168_25">
<rect width="861" height="377" fill="white" transform="translate(0 0.10498)"/>
</clipPath>
</defs>
</svg>
