<svg width="367" height="161" viewBox="0 0 367 161" fill="none" xmlns="http://www.w3.org/2000/svg">
<path d="M285.21 160.871H262.421C253.275 160.871 245.86 153.457 245.86 144.31C245.86 135.164 253.275 127.75 262.421 127.75H285.554C311.3 127.75 333.089 107.601 333.854 81.8658C334.648 55.1257 313.127 33.1166 286.559 33.1166H110.481C102.296 33.1166 95.1449 39.2778 94.5948 47.4433C93.9968 56.3982 101.11 63.8749 109.936 63.8749H180.747C207.138 63.8749 229.472 84.5255 230.257 110.907C231.07 138.317 209.008 160.871 181.78 160.871H124.377C115.231 160.871 107.817 153.457 107.817 144.31C107.817 135.164 115.231 127.75 124.377 127.75H181.235C189.414 127.75 196.571 121.589 197.121 113.423C197.719 104.468 190.606 96.9914 181.78 96.9914H110.969C84.578 96.9914 62.2435 76.3408 61.459 49.9595C60.6458 22.5593 82.7076 0 109.94 0H286.564C331.434 0 367.841 36.9291 366.985 81.9902C366.148 126.028 329.257 160.871 285.215 160.871H285.21Z" fill="white"/>
<path d="M286.894 96.9954C296.04 96.9954 303.455 89.5809 303.455 80.4347C303.455 71.2885 296.04 63.874 286.894 63.874C277.748 63.874 270.333 71.2885 270.333 80.4347C270.333 89.5809 277.748 96.9954 286.894 96.9954Z" fill="white"/>
<path d="M78.0006 160.872C87.1468 160.872 94.5613 153.457 94.5613 144.311C94.5613 135.165 87.1468 127.75 78.0006 127.75C68.8544 127.75 61.4399 135.165 61.4399 144.311C61.4399 153.457 68.8544 160.872 78.0006 160.872Z" fill="white"/>
<path d="M16.5607 160.872C25.7069 160.872 33.1214 153.457 33.1214 144.311C33.1214 135.165 25.7069 127.75 16.5607 127.75C7.41447 127.75 0 135.165 0 144.311C0 153.457 7.41447 160.872 16.5607 160.872Z" fill="white"/>
<path d="M28.5055 64.4978C37.6517 64.4978 45.0662 57.0834 45.0662 47.9371C45.0662 38.7909 37.6517 31.3765 28.5055 31.3765C19.3593 31.3765 11.9448 38.7909 11.9448 47.9371C11.9448 57.0834 19.3593 64.4978 28.5055 64.4978Z" fill="white"/>
</svg>
