<svg width="365" height="160" viewBox="0 0 365 160" fill="none" xmlns="http://www.w3.org/2000/svg">
<path d="M282.944 159.593H260.336C251.263 159.593 243.907 152.237 243.907 143.164C243.907 134.09 251.263 126.735 260.336 126.735H283.286C308.826 126.735 330.442 106.746 331.201 81.2153C331.989 54.6877 310.639 32.8534 284.282 32.8534H109.603C101.484 32.8534 94.389 38.9657 93.8433 47.0664C93.2501 55.95 100.307 63.3673 109.062 63.3673H179.311C205.492 63.3673 227.649 83.8539 228.427 110.026C229.234 137.218 207.347 159.593 180.336 159.593H123.389C114.316 159.593 106.96 152.237 106.96 143.164C106.96 134.09 114.316 126.735 123.389 126.735H179.795C187.91 126.735 195.009 120.622 195.555 112.522C196.148 103.638 189.091 96.2207 180.336 96.2207H110.087C83.9061 96.2207 61.7491 75.7342 60.9708 49.5625C60.1641 22.38 82.0506 0 109.067 0H284.287C328.8 0 364.919 36.6356 364.069 81.3387C363.239 125.026 326.641 159.593 282.949 159.593H282.944Z" fill="#FF971E"/>
<path d="M284.614 96.2254C293.688 96.2254 301.043 88.8698 301.043 79.7963C301.043 70.7227 293.688 63.3672 284.614 63.3672C275.541 63.3672 268.185 70.7227 268.185 79.7963C268.185 88.8698 275.541 96.2254 284.614 96.2254Z" fill="#FF971E"/>
<path d="M77.381 159.593C86.4545 159.593 93.8101 152.237 93.8101 143.164C93.8101 134.09 86.4545 126.735 77.381 126.735C68.3075 126.735 60.9519 134.09 60.9519 143.164C60.9519 152.237 68.3075 159.593 77.381 159.593Z" fill="#FF971E"/>
<path d="M16.4291 159.593C25.5026 159.593 32.8582 152.237 32.8582 143.164C32.8582 134.09 25.5026 126.735 16.4291 126.735C7.35555 126.735 0 134.09 0 143.164C0 152.237 7.35555 159.593 16.4291 159.593Z" fill="#FF971E"/>
<path d="M28.2787 63.9842C37.3522 63.9842 44.7078 56.6286 44.7078 47.5551C44.7078 38.4815 37.3522 31.126 28.2787 31.126C19.2052 31.126 11.8496 38.4815 11.8496 47.5551C11.8496 56.6286 19.2052 63.9842 28.2787 63.9842Z" fill="#FF971E"/>
</svg>
